<svg width="4393" height="1866" xmlns="http://www.w3.org/2000/svg" xmlns:xlink="http://www.w3.org/1999/xlink" xml:space="preserve" overflow="hidden"><g transform="translate(131 -210)"><text fill="#0070C0" font-family="Aptos,Aptos_MSFontService,sans-serif" font-weight="400" font-size="110" transform="matrix(1 0 0 1 183.048 345)">References</text><text font-family="Aptos,Aptos_MSFontService,sans-serif" font-weight="400" font-size="50" transform="matrix(1 0 0 1 171.42 507)">Panel 1:</text><text font-family="Aptos,Aptos_MSFontService,sans-serif" font-weight="400" font-size="50" transform="matrix(1 0 0 1 171.42 628)">1. Blackmon, S.H. and Reardon, M.J. (2009). Surgical Treatment of Primary Cardiac</text><text font-family="Aptos,Aptos_MSFontService,sans-serif" font-weight="400" font-size="50" transform="matrix(1 0 0 1 171.42 688)">Sarcomas, Texas Heart Institute Journal, 36(5), p.451. Available at:</text><text font-family="Aptos,Aptos_MSFontService,sans-serif" font-weight="400" font-size="50" transform="matrix(1 0 0 1 171.42 749)">https://pmc.ncbi.nlm.nih.gov/articles/pmid/19876427/</text><text font-family="Aptos,Aptos_MSFontService,sans-serif" font-weight="400" font-size="50" transform="matrix(1 0 0 1 171.42 809)">2. </text><text font-family="Aptos,Aptos_MSFontService,sans-serif" font-weight="400" font-size="50" transform="matrix(1 0 0 1 222.983 809)">Tyebally</text><text font-family="Aptos,Aptos_MSFontService,sans-serif" font-weight="400" font-size="50" transform="matrix(1 0 0 1 400.587 809)">, S., Chen, D., Bhattacharyya, S. et al. (2020). Cardiac tumors: JACC</text><text font-family="Aptos,Aptos_MSFontService,sans-serif" font-weight="400" font-size="50" transform="matrix(1 0 0 1 171.42 870)">CardioOncology</text><text font-family="Aptos,Aptos_MSFontService,sans-serif" font-weight="400" font-size="50" transform="matrix(1 0 0 1 536.368 870)">state</text><text font-family="Aptos,Aptos_MSFontService,sans-serif" font-weight="400" font-size="50" transform="matrix(1 0 0 1 646.368 870)">-</text><text font-family="Aptos,Aptos_MSFontService,sans-serif" font-weight="400" font-size="50" transform="matrix(1 0 0 1 663.556 870)">of</text><text font-family="Aptos,Aptos_MSFontService,sans-serif" font-weight="400" font-size="50" transform="matrix(1 0 0 1 707.097 870)">-</text><text font-family="Aptos,Aptos_MSFontService,sans-serif" font-weight="400" font-size="50" transform="matrix(1 0 0 1 724.285 870)">the</text><text font-family="Aptos,Aptos_MSFontService,sans-serif" font-weight="400" font-size="50" transform="matrix(1 0 0 1 794.754 870)">-</text><text font-family="Aptos,Aptos_MSFontService,sans-serif" font-weight="400" font-size="50" transform="matrix(1 0 0 1 811.941 870)">art review, JACC: </text><text font-family="Aptos,Aptos_MSFontService,sans-serif" font-weight="400" font-size="50" transform="matrix(1 0 0 1 1187.77 870)">CardioOncology</text><text font-family="Aptos,Aptos_MSFontService,sans-serif" font-weight="400" font-size="50" transform="matrix(1 0 0 1 1542.41 870)">, 2(2), pp. 293</text><text font-family="Aptos,Aptos_MSFontService,sans-serif" font-weight="400" font-size="50" transform="matrix(1 0 0 1 1836.89 870)">–</text><text font-family="Aptos,Aptos_MSFontService,sans-serif" font-weight="400" font-size="50" transform="matrix(1 0 0 1 1859.81 870)">311.</text><text font-family="Aptos,Aptos_MSFontService,sans-serif" font-weight="400" font-size="50" transform="matrix(1 0 0 1 171.42 930)">Available at: https://www.ncbi.nlm.nih.gov/pmc/articles/PMC8352246/pdf/main.pdf</text><text font-family="Aptos,Aptos_MSFontService,sans-serif" font-weight="400" font-size="50" transform="matrix(1 0 0 1 171.42 991)">3. Burkhard</text><text font-family="Aptos,Aptos_MSFontService,sans-serif" font-weight="400" font-size="50" transform="matrix(1 0 0 1 422.358 991)">-</text><text font-family="Aptos,Aptos_MSFontService,sans-serif" font-weight="400" font-size="50" transform="matrix(1 0 0 1 439.545 991)">Meier, A., Gioia, D.D., Vindi </text><text font-family="Aptos,Aptos_MSFontService,sans-serif" font-weight="400" font-size="50" transform="matrix(1 0 0 1 1035.95 991)">Jurinovic</text><text font-family="Aptos,Aptos_MSFontService,sans-serif" font-weight="400" font-size="50" transform="matrix(1 0 0 1 1226.73 991)">, </text><text font-family="Aptos,Aptos_MSFontService,sans-serif" font-weight="400" font-size="50" transform="matrix(1 0 0 1 1251.37 991)">Hoberger</text><text font-family="Aptos,Aptos_MSFontService,sans-serif" font-weight="400" font-size="50" transform="matrix(1 0 0 1 1453.61 991)">, M., Güler, S.E., Völkl, M.,</text><text font-family="Aptos,Aptos_MSFontService,sans-serif" font-weight="400" font-size="50" transform="matrix(1 0 0 1 171.42 1051)">Corradini, S., Gaasch, A.V., Alig, A.H.S., </text><text font-family="Aptos,Aptos_MSFontService,sans-serif" font-weight="400" font-size="50" transform="matrix(1 0 0 1 1038.82 1051)">Knösel</text><text font-family="Aptos,Aptos_MSFontService,sans-serif" font-weight="400" font-size="50" transform="matrix(1 0 0 1 1187.77 1051)">, T., </text><text font-family="Aptos,Aptos_MSFontService,sans-serif" font-weight="400" font-size="50" transform="matrix(1 0 0 1 1275.43 1051)">Hagl</text><text font-family="Aptos,Aptos_MSFontService,sans-serif" font-weight="400" font-size="50" transform="matrix(1 0 0 1 1375.69 1051)">, C., Schneider, C., Wulf </text><text font-family="Aptos,Aptos_MSFontService,sans-serif" font-weight="400" font-size="50" transform="matrix(1 0 0 1 1905.64 1051)">Sienel</text><text font-family="Aptos,Aptos_MSFontService,sans-serif" font-weight="400" font-size="50" transform="matrix(1 0 0 1 2040.27 1051)">,</text><text font-family="Aptos,Aptos_MSFontService,sans-serif" font-weight="400" font-size="50" transform="matrix(1 0 0 1 171.42 1112)">Kunz, W.G., Caspar Burkhard</text><text font-family="Aptos,Aptos_MSFontService,sans-serif" font-weight="400" font-size="50" transform="matrix(1 0 0 1 805.066 1112)">-</text><text font-family="Aptos,Aptos_MSFontService,sans-serif" font-weight="400" font-size="50" transform="matrix(1 0 0 1 822.254 1112)">Meier, </text><text font-family="Aptos,Aptos_MSFontService,sans-serif" font-weight="400" font-size="50" transform="matrix(1 0 0 1 968.347 1112)">Bergwelt</text><text font-family="Aptos,Aptos_MSFontService,sans-serif" font-weight="400" font-size="50" transform="matrix(1 0 0 1 1157.98 1112)">-</text><text font-family="Aptos,Aptos_MSFontService,sans-serif" font-weight="400" font-size="50" transform="matrix(1 0 0 1 1175.17 1112)">Baildon, M. von, Lindner, L.H. and </text><text font-family="Aptos,Aptos_MSFontService,sans-serif" font-weight="400" font-size="50" transform="matrix(1 0 0 1 1917.1 1112)">Berclaz</text><text font-family="Aptos,Aptos_MSFontService,sans-serif" font-weight="400" font-size="50" transform="matrix(1 0 0 1 2079.23 1112)">,</text><text font-family="Aptos,Aptos_MSFontService,sans-serif" font-weight="400" font-size="50" transform="matrix(1 0 0 1 171.42 1172)">L.M. (2025). Primary cardiac sarcoma: insights from two decades of multimodal</text><text font-family="Aptos,Aptos_MSFontService,sans-serif" font-weight="400" font-size="50" transform="matrix(1 0 0 1 171.42 1233)">management at LMU Munich, Cardio</text><text font-family="Aptos,Aptos_MSFontService,sans-serif" font-weight="400" font-size="50" transform="matrix(1 0 0 1 968.347 1233)">-</text><text font-family="Aptos,Aptos_MSFontService,sans-serif" font-weight="400" font-size="50" transform="matrix(1 0 0 1 985.535 1233)">Oncology, 11(1), pp.58</text><text font-family="Aptos,Aptos_MSFontService,sans-serif" font-weight="400" font-size="50" transform="matrix(1 0 0 1 1477.67 1233)">–</text><text font-family="Aptos,Aptos_MSFontService,sans-serif" font-weight="400" font-size="50" transform="matrix(1 0 0 1 1500.59 1233)">58. Available at:</text><text font-family="Aptos,Aptos_MSFontService,sans-serif" font-weight="400" font-size="50" transform="matrix(1 0 0 1 171.42 1293)">https://cardiooncologyjournal.biomedcentral.com/counter/pdf/10.1186/s40959</text><text font-family="Aptos,Aptos_MSFontService,sans-serif" font-weight="400" font-size="50" transform="matrix(1 0 0 1 1913.66 1293)">-</text><text font-family="Aptos,Aptos_MSFontService,sans-serif" font-weight="400" font-size="50" transform="matrix(1 0 0 1 1930.85 1293)">025</text><text font-family="Aptos,Aptos_MSFontService,sans-serif" font-weight="400" font-size="50" transform="matrix(1 0 0 1 2011.63 1293)">-</text><text font-family="Aptos,Aptos_MSFontService,sans-serif" font-weight="400" font-size="50" transform="matrix(1 0 0 1 2028.82 1293)">00359</text><text font-family="Aptos,Aptos_MSFontService,sans-serif" font-weight="400" font-size="50" transform="matrix(1 0 0 1 2163.45 1293)">-</text><text font-family="Aptos,Aptos_MSFontService,sans-serif" font-weight="400" font-size="50" transform="matrix(1 0 0 1 171.42 1354)">w.pdf</text><text font-family="Aptos,Aptos_MSFontService,sans-serif" font-weight="400" font-size="50" transform="matrix(1 0 0 1 171.42 1414)">4. Chan, E.Y., Ali, A., Zubair, M.M., Nguyen, D.T., Ibarra</text><text font-family="Aptos,Aptos_MSFontService,sans-serif" font-weight="400" font-size="50" transform="matrix(1 0 0 1 1348.19 1414)">-</text><text font-family="Aptos,Aptos_MSFontService,sans-serif" font-weight="400" font-size="50" transform="matrix(1 0 0 1 1365.38 1414)">Cortez, S.H., Graviss, E.A., Shapira,</text><text font-family="Aptos,Aptos_MSFontService,sans-serif" font-weight="400" font-size="50" transform="matrix(1 0 0 1 171.42 1475)">O.M., Ravi, V., MacGillivray, T.E. and Reardon, M.J. (2022). Primary cardiac sarcomas:</text><text font-family="Aptos,Aptos_MSFontService,sans-serif" font-weight="400" font-size="50" transform="matrix(1 0 0 1 171.42 1535)">Treatment strategies. The Journal of Thoracic and Cardiovascular Surgery, Available at:</text><text font-family="Aptos,Aptos_MSFontService,sans-serif" font-weight="400" font-size="50" transform="matrix(1 0 0 1 171.42 1596)">https://www.jtcvs.org/action/showPdf?pii=S0022</text><text font-family="Aptos,Aptos_MSFontService,sans-serif" font-weight="400" font-size="50" transform="matrix(1 0 0 1 1243.35 1596)">-</text><text font-family="Aptos,Aptos_MSFontService,sans-serif" font-weight="400" font-size="50" transform="matrix(1 0 0 1 1260.53 1596)">5223%2822%2900100</text><text font-family="Aptos,Aptos_MSFontService,sans-serif" font-weight="400" font-size="50" transform="matrix(1 0 0 1 1748.09 1596)">-</text><text font-family="Aptos,Aptos_MSFontService,sans-serif" font-weight="400" font-size="50" transform="matrix(1 0 0 1 1765.27 1596)">3</text><text font-family="Aptos,Aptos_MSFontService,sans-serif" font-weight="400" font-size="50" transform="matrix(1 0 0 1 2266.9 457)">Panel 2:</text><text font-family="Aptos,Aptos_MSFontService,sans-serif" font-weight="400" font-size="50" transform="matrix(1 0 0 1 2266.9 578)">1. Hasani, N., Farhadi, F., Morris, M.A. et al. (2021). Artificial intelligence in medical </text><text font-family="Aptos,Aptos_MSFontService,sans-serif" font-weight="400" font-size="50" transform="matrix(1 0 0 1 2266.9 638)">imaging</text><text font-family="Aptos,Aptos_MSFontService,sans-serif" font-weight="400" font-size="50" transform="matrix(1 0 0 1 2266.9 699)">and its impact on the rare disease community: Threats, Challenges and Opportunities,</text><text font-family="Aptos,Aptos_MSFontService,sans-serif" font-weight="400" font-size="50" transform="matrix(1 0 0 1 2266.9 759)">PET Clinics, 17(1), pp. 13</text><text font-family="Aptos,Aptos_MSFontService,sans-serif" font-weight="400" font-size="50" transform="matrix(1 0 0 1 2804.3 759)">–</text><text font-family="Aptos,Aptos_MSFontService,sans-serif" font-weight="400" font-size="50" transform="matrix(1 0 0 1 2827.22 759)">29. Available at:</text><text font-family="Aptos,Aptos_MSFontService,sans-serif" font-weight="400" font-size="50" transform="matrix(1 0 0 1 2266.9 820)">https://www.sciencedirect.com/science/article/</text><text font-family="Aptos,Aptos_MSFontService,sans-serif" font-weight="400" font-size="50" transform="matrix(1 0 0 1 3317.63 820)">pii</text><text font-family="Aptos,Aptos_MSFontService,sans-serif" font-weight="400" font-size="50" transform="matrix(1 0 0 1 3369.77 820)">/S155685982100078X/pdfft?md5=…&amp;a</text><text font-family="Aptos,Aptos_MSFontService,sans-serif" font-weight="400" font-size="50" transform="matrix(1 0 0 1 2266.9 880)">mp;pid=1</text><text font-family="Aptos,Aptos_MSFontService,sans-serif" font-weight="400" font-size="50" transform="matrix(1 0 0 1 2474.3 880)">-</text><text font-family="Aptos,Aptos_MSFontService,sans-serif" font-weight="400" font-size="50" transform="matrix(1 0 0 1 2491.49 880)">s2.0</text><text font-family="Aptos,Aptos_MSFontService,sans-serif" font-weight="400" font-size="50" transform="matrix(1 0 0 1 2584.3 880)">-</text><text font-family="Aptos,Aptos_MSFontService,sans-serif" font-weight="400" font-size="50" transform="matrix(1 0 0 1 2601.49 880)">S155685982100078X</text><text font-family="Aptos,Aptos_MSFontService,sans-serif" font-weight="400" font-size="50" transform="matrix(1 0 0 1 3062.11 880)">-</text><text font-family="Aptos,Aptos_MSFontService,sans-serif" font-weight="400" font-size="50" transform="matrix(1 0 0 1 3079.3 880)">main.pdf</text><text font-family="Aptos,Aptos_MSFontService,sans-serif" font-weight="400" font-size="50" transform="matrix(1 0 0 1 2266.9 941)">2. </text><text font-family="Aptos,Aptos_MSFontService,sans-serif" font-weight="400" font-size="50" transform="matrix(1 0 0 1 2318.47 941)">Tyebally</text><text font-family="Aptos,Aptos_MSFontService,sans-serif" font-weight="400" font-size="50" transform="matrix(1 0 0 1 2496.07 941)">, S., Chen, D., Bhattacharyya, S. et al. (2020). Cardiac tumors: JACC</text><text font-family="Aptos,Aptos_MSFontService,sans-serif" font-weight="400" font-size="50" transform="matrix(1 0 0 1 2266.9 1001)">CardioOncology</text><text font-family="Aptos,Aptos_MSFontService,sans-serif" font-weight="400" font-size="50" transform="matrix(1 0 0 1 2631.85 1001)">state</text><text font-family="Aptos,Aptos_MSFontService,sans-serif" font-weight="400" font-size="50" transform="matrix(1 0 0 1 2741.85 1001)">-</text><text font-family="Aptos,Aptos_MSFontService,sans-serif" font-weight="400" font-size="50" transform="matrix(1 0 0 1 2759.04 1001)">of</text><text font-family="Aptos,Aptos_MSFontService,sans-serif" font-weight="400" font-size="50" transform="matrix(1 0 0 1 2802.58 1001)">-</text><text font-family="Aptos,Aptos_MSFontService,sans-serif" font-weight="400" font-size="50" transform="matrix(1 0 0 1 2819.77 1001)">the</text><text font-family="Aptos,Aptos_MSFontService,sans-serif" font-weight="400" font-size="50" transform="matrix(1 0 0 1 2890.24 1001)">-</text><text font-family="Aptos,Aptos_MSFontService,sans-serif" font-weight="400" font-size="50" transform="matrix(1 0 0 1 2907.43 1001)">art review, JACC: </text><text font-family="Aptos,Aptos_MSFontService,sans-serif" font-weight="400" font-size="50" transform="matrix(1 0 0 1 3283.26 1001)">CardioOncology</text><text font-family="Aptos,Aptos_MSFontService,sans-serif" font-weight="400" font-size="50" transform="matrix(1 0 0 1 3637.89 1001)">, 2(2), pp. 293</text><text font-family="Aptos,Aptos_MSFontService,sans-serif" font-weight="400" font-size="50" transform="matrix(1 0 0 1 3932.37 1001)">–</text><text font-family="Aptos,Aptos_MSFontService,sans-serif" font-weight="400" font-size="50" transform="matrix(1 0 0 1 3955.29 1001)">311.</text><text font-family="Aptos,Aptos_MSFontService,sans-serif" font-weight="400" font-size="50" transform="matrix(1 0 0 1 2266.9 1062)">Available at: https://www.ncbi.nlm.nih.gov/pmc/articles/PMC8352246/pdf/main.pdf</text><text font-family="Aptos,Aptos_MSFontService,sans-serif" font-weight="400" font-size="50" transform="matrix(1 0 0 1 2266.9 1122)">3. Germain, D.P., </text><text font-family="Aptos,Aptos_MSFontService,sans-serif" font-weight="400" font-size="50" transform="matrix(1 0 0 1 2648.47 1122)">Gruson</text><text font-family="Aptos,Aptos_MSFontService,sans-serif" font-weight="400" font-size="50" transform="matrix(1 0 0 1 2809.46 1122)">, D., </text><text font-family="Aptos,Aptos_MSFontService,sans-serif" font-weight="400" font-size="50" transform="matrix(1 0 0 1 2907.43 1122)">Malcles</text><text font-family="Aptos,Aptos_MSFontService,sans-serif" font-weight="400" font-size="50" transform="matrix(1 0 0 1 3078.15 1122)">, M. and Garcelon, N. (2025). Applying artificial</text><text font-family="Aptos,Aptos_MSFontService,sans-serif" font-weight="400" font-size="50" transform="matrix(1 0 0 1 2266.9 1183)">intelligence to rare diseases: a literature review highlighting lessons from Fabry disease,</text><text font-family="Aptos,Aptos_MSFontService,sans-serif" font-weight="400" font-size="50" transform="matrix(1 0 0 1 2266.9 1243)">Orphanet</text><text font-family="Aptos,Aptos_MSFontService,sans-serif" font-weight="400" font-size="50" transform="matrix(1 0 0 1 2484.04 1243)">Journal of Rare Diseases, 20(1), p. 186. Available at:</text><text font-family="Aptos,Aptos_MSFontService,sans-serif" font-weight="400" font-size="50" transform="matrix(1 0 0 1 2266.9 1304)">https://ojrd.biomedcentral.com/counter/pdf/10.1186/s13023</text><text font-family="Aptos,Aptos_MSFontService,sans-serif" font-weight="400" font-size="50" transform="matrix(1 0 0 1 3603.52 1304)">-</text><text font-family="Aptos,Aptos_MSFontService,sans-serif" font-weight="400" font-size="50" transform="matrix(1 0 0 1 3620.71 1304)">025</text><text font-family="Aptos,Aptos_MSFontService,sans-serif" font-weight="400" font-size="50" transform="matrix(1 0 0 1 3701.49 1304)">-</text><text font-family="Aptos,Aptos_MSFontService,sans-serif" font-weight="400" font-size="50" transform="matrix(1 0 0 1 3718.68 1304)">03655</text><text font-family="Aptos,Aptos_MSFontService,sans-serif" font-weight="400" font-size="50" transform="matrix(1 0 0 1 3853.31 1304)">-</text><text font-family="Aptos,Aptos_MSFontService,sans-serif" font-weight="400" font-size="50" transform="matrix(1 0 0 1 3870.5 1304)">x.pdf</text><text font-family="Aptos,Aptos_MSFontService,sans-serif" font-weight="400" font-size="50" transform="matrix(1 0 0 1 2266.9 1364)">4. Sengupta, P.P., Dey, D., Davies, R.H., Duchateau, N. and </text><text font-family="Aptos,Aptos_MSFontService,sans-serif" font-weight="400" font-size="50" transform="matrix(1 0 0 1 3553.68 1364)">Yanamala</text><text font-family="Aptos,Aptos_MSFontService,sans-serif" font-weight="400" font-size="50" transform="matrix(1 0 0 1 3772.53 1364)">, N. (2024).</text><text font-family="Aptos,Aptos_MSFontService,sans-serif" font-weight="400" font-size="50" transform="matrix(1 0 0 1 2266.9 1425)">Challenges for augmenting intelligence in cardiac imaging, The Lancet Digital Health,</text><text font-family="Aptos,Aptos_MSFontService,sans-serif" font-weight="400" font-size="50" transform="matrix(1 0 0 1 2266.9 1485)">6(10), pp. e739</text><text font-family="Aptos,Aptos_MSFontService,sans-serif" font-weight="400" font-size="50" transform="matrix(1 0 0 1 2590.03 1485)">–</text><text font-family="Aptos,Aptos_MSFontService,sans-serif" font-weight="400" font-size="50" transform="matrix(1 0 0 1 2612.95 1485)">e748. Available at: </text><text font-family="Aptos,Aptos_MSFontService,sans-serif" font-weight="400" font-size="50" transform="matrix(1 0 0 1 2266.9 1546)">https://www.thelancet.com/action/showPdf?pii=S2589</text><text font-family="Aptos,Aptos_MSFontService,sans-serif" font-weight="400" font-size="50" transform="matrix(1 0 0 1 3472.32 1546)">-</text><text font-family="Aptos,Aptos_MSFontService,sans-serif" font-weight="400" font-size="50" transform="matrix(1 0 0 1 3489.51 1546)">7500%2824%2900142</text><text font-family="Aptos,Aptos_MSFontService,sans-serif" font-weight="400" font-size="50" transform="matrix(1 0 0 1 3977.06 1546)">-</text><text font-family="Aptos,Aptos_MSFontService,sans-serif" font-weight="400" font-size="50" transform="matrix(1 0 0 1 3994.25 1546)">0</text><text font-family="Aptos,Aptos_MSFontService,sans-serif" font-weight="400" font-size="50" transform="matrix(1 0 0 1 2266.9 1606)">5. Nechita, L.C., </text><text font-family="Aptos,Aptos_MSFontService,sans-serif" font-weight="400" font-size="50" transform="matrix(1 0 0 1 2627.84 1606)">Tutunaru</text><text font-family="Aptos,Aptos_MSFontService,sans-serif" font-weight="400" font-size="50" transform="matrix(1 0 0 1 2823.78 1606)">, D., Nechita, A. et al. (2025). AI and smart devices in cardio</text><text font-family="Aptos,Aptos_MSFontService,sans-serif" font-weight="400" font-size="50" transform="matrix(1 0 0 1 4101.38 1606)">-</text><text font-family="Aptos,Aptos_MSFontService,sans-serif" font-weight="400" font-size="50" transform="matrix(1 0 0 1 2266.9 1667)">oncology: Advancements in Cardiotoxicity Prediction and Cardiovascular Monitoring,</text><text font-family="Aptos,Aptos_MSFontService,sans-serif" font-weight="400" font-size="50" transform="matrix(1 0 0 1 2266.9 1727)">Diagnostics, 15(6), p. 787. Available at:</text><text font-family="Aptos,Aptos_MSFontService,sans-serif" font-weight="400" font-size="50" transform="matrix(1 0 0 1 2266.9 1788)">https://www.ncbi.nlm.nih.gov/pmc/articles/PMC11940913/pdf/diagnostics</text><text font-family="Aptos,Aptos_MSFontService,sans-serif" font-weight="400" font-size="50" transform="matrix(1 0 0 1 3904.87 1788)">-</text><text font-family="Aptos,Aptos_MSFontService,sans-serif" font-weight="400" font-size="50" transform="matrix(1 0 0 1 3922.06 1788)">15</text><text font-family="Aptos,Aptos_MSFontService,sans-serif" font-weight="400" font-size="50" transform="matrix(1 0 0 1 3975.92 1788)">-</text><text font-family="Aptos,Aptos_MSFontService,sans-serif" font-weight="400" font-size="50" transform="matrix(1 0 0 1 3993.1 1788)">00787.pdf</text><text font-family="Aptos,Aptos_MSFontService,sans-serif" font-weight="400" font-size="50" transform="matrix(1 0 0 1 2266.9 1848)">6. </text><text font-family="Aptos,Aptos_MSFontService,sans-serif" font-weight="400" font-size="50" transform="matrix(1 0 0 1 2318.47 1848)">Goktas</text><text font-family="Aptos,Aptos_MSFontService,sans-serif" font-weight="400" font-size="50" transform="matrix(1 0 0 1 2474.3 1848)">, P. and Grzybowski, A. (2025). Shaping the future of healthcare: ethical clinical</text><text font-family="Aptos,Aptos_MSFontService,sans-serif" font-weight="400" font-size="50" transform="matrix(1 0 0 1 2266.9 1909)">challenges and pathways to trustworthy AI, Journal of Clinical Medicine, 14(5), p. 1605.</text><text font-family="Aptos,Aptos_MSFontService,sans-serif" font-weight="400" font-size="50" transform="matrix(1 0 0 1 2266.9 1969)">Available at: https://www.ncbi.nlm.nih.gov/pmc/articles/PMC11900311/pdf/jcm</text><text font-family="Aptos,Aptos_MSFontService,sans-serif" font-weight="400" font-size="50" transform="matrix(1 0 0 1 4012.01 1969)">-</text><text font-family="Aptos,Aptos_MSFontService,sans-serif" font-weight="400" font-size="50" transform="matrix(1 0 0 1 4029.2 1969)">14</text><text font-family="Aptos,Aptos_MSFontService,sans-serif" font-weight="400" font-size="50" transform="matrix(1 0 0 1 4083.05 1969)">-</text><text font-family="Aptos,Aptos_MSFontService,sans-serif" font-weight="400" font-size="50" transform="matrix(1 0 0 1 2266.9 2030)">01605.pdf</text></g></svg>