<svg width="3919" height="2251" xmlns="http://www.w3.org/2000/svg" xmlns:xlink="http://www.w3.org/1999/xlink" xml:space="preserve" overflow="hidden"><g transform="translate(-207 -67)"><path d="M286.5 662C286.5 524.757 404.249 413.5 549.5 413.5 694.751 413.5 812.5 524.757 812.5 662 812.5 799.243 694.751 910.5 549.5 910.5 404.249 910.5 286.5 799.243 286.5 662Z" stroke="#2E2D68" stroke-width="4.58333" stroke-miterlimit="8" fill="#0072C7" fill-rule="evenodd"/><text fill="#FFFFFF" font-family="Aptos,Aptos_MSFontService,sans-serif" font-weight="400" font-size="64" transform="matrix(1 0 0 1 415.488 644)">Symptom </text><text fill="#FFFFFF" font-family="Aptos,Aptos_MSFontService,sans-serif" font-weight="400" font-size="64" transform="matrix(1 0 0 1 470.992 721)">onset</text><path d="M1035.5 659C1035.5 521.757 1153.25 410.5 1298.5 410.5 1443.75 410.5 1561.5 521.757 1561.5 659 1561.5 796.243 1443.75 907.5 1298.5 907.5 1153.25 907.5 1035.5 796.243 1035.5 659Z" stroke="#2E2D68" stroke-width="4.58333" stroke-miterlimit="8" fill="#0072C7" fill-rule="evenodd"/><text fill="#FFFFFF" font-family="Aptos,Aptos_MSFontService,sans-serif" font-weight="400" font-size="64" transform="matrix(1 0 0 1 1227.69 679)">Echo</text><path d="M1918.5 662.5C1918.5 528.847 2034.68 420.5 2178 420.5 2321.32 420.5 2437.5 528.847 2437.5 662.5 2437.5 796.153 2321.32 904.5 2178 904.5 2034.68 904.5 1918.5 796.153 1918.5 662.5Z" stroke="#2E2D68" stroke-width="4.58333" stroke-miterlimit="8" fill="#0072C7" fill-rule="evenodd"/><text fill="#FFFFFF" font-family="Aptos,Aptos_MSFontService,sans-serif" font-weight="400" font-size="64" transform="matrix(1 0 0 1 2031.89 644)">CMR / CT / </text><text fill="#FFFFFF" font-family="Aptos,Aptos_MSFontService,sans-serif" font-weight="400" font-size="64" transform="matrix(1 0 0 1 2125.83 721)">PET</text><path d="M2740.5 664C2740.5 530.623 2856.68 422.5 3000 422.5 3143.32 422.5 3259.5 530.623 3259.5 664 3259.5 797.377 3143.32 905.5 3000 905.5 2856.68 905.5 2740.5 797.377 2740.5 664Z" stroke="#2E2D68" stroke-width="4.58333" stroke-miterlimit="8" fill="#0072C7" fill-rule="evenodd"/><text fill="#FFFFFF" font-family="Aptos,Aptos_MSFontService,sans-serif" font-weight="400" font-size="64" transform="matrix(1 0 0 1 2906.59 684)">Biopsy</text><path d="M3514.5 664.5C3514.5 525.877 3632.25 413.5 3777.5 413.5 3922.75 413.5 4040.5 525.877 4040.5 664.5 4040.5 803.123 3922.75 915.5 3777.5 915.5 3632.25 915.5 3514.5 803.123 3514.5 664.5Z" stroke="#2E2D68" stroke-width="4.58333" stroke-miterlimit="8" fill="#0072C7" fill-rule="evenodd"/><text fill="#FFFFFF" font-family="Aptos,Aptos_MSFontService,sans-serif" font-weight="400" font-size="64" transform="matrix(1 0 0 1 3709.4 569)">Final </text><text fill="#FFFFFF" font-family="Aptos,Aptos_MSFontService,sans-serif" font-weight="400" font-size="64" transform="matrix(1 0 0 1 3644.18 646)">diagnosis </text><text fill="#FFFFFF" font-family="Aptos,Aptos_MSFontService,sans-serif" font-weight="400" font-size="64" transform="matrix(1 0 0 1 3723.82 723)">and </text><text fill="#FFFFFF" font-family="Aptos,Aptos_MSFontService,sans-serif" font-weight="400" font-size="64" transform="matrix(1 0 0 1 3677.71 800)">staging</text><path d="M209.5 1028.17C209.5 966.496 259.496 916.5 321.169 916.5L767.831 916.5C829.504 916.5 879.5 966.496 879.5 1028.17L879.5 1669.83C879.5 1731.5 829.504 1781.5 767.831 1781.5L321.169 1781.5C259.496 1781.5 209.5 1731.5 209.5 1669.83Z" stroke="#2E2D68" stroke-width="4.58333" stroke-miterlimit="8" fill="#75C4FF" fill-rule="evenodd"/><text fill="#FFFFFF" font-family="Aptos,Aptos_MSFontService,sans-serif" font-weight="400" font-size="55" transform="matrix(1 0 0 1 339.993 1037)">Vague symptoms </text><text fill="#FFFFFF" font-family="Aptos,Aptos_MSFontService,sans-serif" font-weight="400" font-size="55" transform="matrix(1 0 0 1 333.302 1103)">(fatigue, dyspnea, </text><text fill="#FFFFFF" font-family="Aptos,Aptos_MSFontService,sans-serif" font-weight="400" font-size="55" transform="matrix(1 0 0 1 328.237 1169)">chest pain, weight </text><text fill="#FFFFFF" font-family="Aptos,Aptos_MSFontService,sans-serif" font-weight="400" font-size="55" transform="matrix(1 0 0 1 478.777 1235)">loss).</text><text fill="#FFFFFF" font-family="Aptos,Aptos_MSFontService,sans-serif" font-weight="400" font-size="55" transform="matrix(1 0 0 1 303.441 1367)">Often misdiagnosed </text><text fill="#FFFFFF" font-family="Aptos,Aptos_MSFontService,sans-serif" font-weight="400" font-size="55" transform="matrix(1 0 0 1 359.908 1433)">as heart failure, </text><text fill="#FFFFFF" font-family="Aptos,Aptos_MSFontService,sans-serif" font-weight="400" font-size="55" transform="matrix(1 0 0 1 394.26 1499)">embolism or </text><text fill="#FFFFFF" font-family="Aptos,Aptos_MSFontService,sans-serif" font-weight="400" font-size="55" transform="matrix(1 0 0 1 397.308 1565)">myocarditis.</text><text fill="#FFFFFF" font-family="Aptos,Aptos_MSFontService,sans-serif" font-weight="400" font-size="55" transform="matrix(1 0 0 1 326.243 1697)">Diagnostic delays.</text><path d="M1758.5 1051.67C1758.5 974.256 1821.26 911.5 1898.67 911.5L2459.33 911.5C2536.74 911.5 2599.5 974.256 2599.5 1051.67L2599.5 2161.33C2599.5 2238.74 2536.74 2301.5 2459.33 2301.5L1898.67 2301.5C1821.26 2301.5 1758.5 2238.74 1758.5 2161.33Z" stroke="#2E2D68" stroke-width="4.58333" stroke-miterlimit="8" fill="#75C4FF" fill-rule="evenodd"/><text fill="#FFFFFF" font-family="Aptos,Aptos_MSFontService,sans-serif" font-weight="700" font-size="50" transform="matrix(1 0 0 1 1979.55 974)">MRI: </text><text fill="#FFFFFF" font-family="Aptos,Aptos_MSFontService,sans-serif" font-weight="400" font-size="50" transform="matrix(1 0 0 1 2092.99 974)">Strong tissue </text><text fill="#FFFFFF" font-family="Aptos,Aptos_MSFontService,sans-serif" font-weight="400" font-size="50" transform="matrix(1 0 0 1 2000.47 1034)">characterization</text><text fill="#FFFFFF" font-family="Aptos,Aptos_MSFontService,sans-serif" font-weight="400" font-size="50" transform="matrix(1 0 0 1 2041.43 1095)">Can mistake </text><text fill="#FFFFFF" font-family="Aptos,Aptos_MSFontService,sans-serif" font-weight="400" font-size="50" transform="matrix(1 0 0 1 1894.76 1155)">necrosis/inflammation for </text><text fill="#FFFFFF" font-family="Aptos,Aptos_MSFontService,sans-serif" font-weight="400" font-size="50" transform="matrix(1 0 0 1 2007.92 1216)">benign disease.</text><text fill="#FFFFFF" font-family="Aptos,Aptos_MSFontService,sans-serif" font-weight="700" font-size="50" transform="matrix(1 0 0 1 1916.83 1337)">CT</text><text fill="#FFFFFF" font-family="Aptos,Aptos_MSFontService,sans-serif" font-weight="400" font-size="50" transform="matrix(1 0 0 1 1977.56 1337)">: Strong anatomy and </text><text fill="#FFFFFF" font-family="Aptos,Aptos_MSFontService,sans-serif" font-weight="400" font-size="50" transform="matrix(1 0 0 1 1976.98 1397)">calcification detail</text><text fill="#FFFFFF" font-family="Aptos,Aptos_MSFontService,sans-serif" font-weight="400" font-size="50" transform="matrix(1 0 0 1 1894.48 1458)">Weak benign vs malignant </text><text fill="#FFFFFF" font-family="Aptos,Aptos_MSFontService,sans-serif" font-weight="400" font-size="50" transform="matrix(1 0 0 1 2014.22 1518)">discrimination.</text><text fill="#FFFFFF" font-family="Aptos,Aptos_MSFontService,sans-serif" font-weight="700" font-size="50" transform="matrix(1 0 0 1 1843.77 1639)">FDG PET:</text><text fill="#FFFFFF" font-family="Aptos,Aptos_MSFontService,sans-serif" font-weight="400" font-size="50" transform="matrix(1 0 0 1 2062.05 1639)">Good for staging and </text><text fill="#FFFFFF" font-family="Aptos,Aptos_MSFontService,sans-serif" font-weight="400" font-size="50" transform="matrix(1 0 0 1 2057.77 1700)">metastasis</text><text fill="#FFFFFF" font-family="Aptos,Aptos_MSFontService,sans-serif" font-weight="400" font-size="50" transform="matrix(1 0 0 1 1850.64 1760)">False positives (inflammation) </text><text fill="#FFFFFF" font-family="Aptos,Aptos_MSFontService,sans-serif" font-weight="400" font-size="50" transform="matrix(1 0 0 1 1848.93 1821)">and false negatives (small/low </text><text fill="#FFFFFF" font-family="Aptos,Aptos_MSFontService,sans-serif" font-weight="400" font-size="50" transform="matrix(1 0 0 1 2102.45 1881)">grade).</text><text fill="#221DF2" font-family="Aptos,Aptos_MSFontService,sans-serif" font-weight="700" font-size="55" transform="matrix(1 0 0 1 2144.85 2006)">AI:</text><text fill="#221DF2" font-family="Aptos,Aptos_MSFontService,sans-serif" font-weight="400" font-size="55" transform="matrix(1 0 0 1 1904.71 2072)">Radiomics: texture and </text><text fill="#221DF2" font-family="Aptos,Aptos_MSFontService,sans-serif" font-weight="400" font-size="55" transform="matrix(1 0 0 1 1993.78 2138)">shape features.</text><text fill="#221DF2" font-family="Aptos,Aptos_MSFontService,sans-serif" font-weight="400" font-size="55" transform="matrix(1 0 0 1 1846.93 2204)">Multimodal AI: combines all </text><text fill="#221DF2" font-family="Aptos,Aptos_MSFontService,sans-serif" font-weight="400" font-size="55" transform="matrix(1 0 0 1 1906.45 2270)">imaging + clinical data.</text><path d="M970.5 1025.17C970.5 963.496 1020.5 913.5 1082.17 913.5L1528.83 913.5C1590.5 913.5 1640.5 963.496 1640.5 1025.17L1640.5 2110.83C1640.5 2172.5 1590.5 2222.5 1528.83 2222.5L1082.17 2222.5C1020.5 2222.5 970.5 2172.5 970.5 2110.83Z" stroke="#2E2D68" stroke-width="4.58333" stroke-miterlimit="8" fill="#75C4FF" fill-rule="evenodd"/><text fill="#FFFFFF" font-family="Aptos,Aptos_MSFontService,sans-serif" font-weight="700" font-size="55" transform="matrix(1 0 0 1 1200.36 1024)">Current:</text><text fill="#FFFFFF" font-family="Aptos,Aptos_MSFontService,sans-serif" font-weight="400" font-size="55" transform="matrix(1 0 0 1 1116.37 1090)">Accessible, </text><text fill="#FFFFFF" font-family="Aptos,Aptos_MSFontService,sans-serif" font-weight="400" font-size="55" transform="matrix(1 0 0 1 1402.3 1090)">non </text><text fill="#FFFFFF" font-family="Aptos,Aptos_MSFontService,sans-serif" font-weight="400" font-size="55" transform="matrix(1 0 0 1 1049.68 1156)">invasive</text><text fill="#FFFFFF" font-family="Aptos,Aptos_MSFontService,sans-serif" font-weight="400" font-size="55" transform="matrix(1 0 0 1 1238.38 1156)">, shows mass </text><text fill="#FFFFFF" font-family="Aptos,Aptos_MSFontService,sans-serif" font-weight="400" font-size="55" transform="matrix(1 0 0 1 1055.02 1222)">location/obstruction.</text><text fill="#FFFFFF" font-family="Aptos,Aptos_MSFontService,sans-serif" font-weight="400" font-size="55" transform="matrix(1 0 0 1 1056.01 1288)">Operator dependent, </text><text fill="#FFFFFF" font-family="Aptos,Aptos_MSFontService,sans-serif" font-weight="400" font-size="55" transform="matrix(1 0 0 1 1171.69 1354)">poor tissue </text><text fill="#FFFFFF" font-family="Aptos,Aptos_MSFontService,sans-serif" font-weight="400" font-size="55" transform="matrix(1 0 0 1 1102.98 1420)">characterisation</text><text fill="#FFFFFF" font-family="Aptos,Aptos_MSFontService,sans-serif" font-weight="400" font-size="55" transform="matrix(1 0 0 1 1491.33 1420)">.</text><text fill="#FFFFFF" font-family="Aptos,Aptos_MSFontService,sans-serif" font-weight="400" font-size="55" transform="matrix(1 0 0 1 1087.93 1486)">Deep or infiltrative </text><text fill="#FFFFFF" font-family="Aptos,Aptos_MSFontService,sans-serif" font-weight="400" font-size="55" transform="matrix(1 0 0 1 1112.11 1552)">tumours</text><text fill="#FFFFFF" font-family="Aptos,Aptos_MSFontService,sans-serif" font-weight="400" font-size="55" transform="matrix(1 0 0 1 1325.28 1552)">may be </text><text fill="#FFFFFF" font-family="Aptos,Aptos_MSFontService,sans-serif" font-weight="400" font-size="55" transform="matrix(1 0 0 1 1210.07 1618)">missed.</text><text fill="#0624D5" font-family="Aptos,Aptos_MSFontService,sans-serif" font-weight="700" font-size="55" transform="matrix(1 0 0 1 1271.38 1750)">AI:</text><text fill="#0624D5" font-family="Aptos,Aptos_MSFontService,sans-serif" font-weight="400" font-size="55" transform="matrix(1 0 0 1 1094.21 1816)">Automated image </text><text fill="#0624D5" font-family="Aptos,Aptos_MSFontService,sans-serif" font-weight="400" font-size="55" transform="matrix(1 0 0 1 1206 1882)">capture.</text><text fill="#0624D5" font-family="Aptos,Aptos_MSFontService,sans-serif" font-weight="400" font-size="55" transform="matrix(1 0 0 1 1075.74 1948)">Consistent imaging </text><text fill="#0624D5" font-family="Aptos,Aptos_MSFontService,sans-serif" font-weight="400" font-size="55" transform="matrix(1 0 0 1 1230.97 2014)">views.</text><text fill="#0624D5" font-family="Aptos,Aptos_MSFontService,sans-serif" font-weight="400" font-size="55" transform="matrix(1 0 0 1 1085.13 2080)">Detects masses in </text><text fill="#0624D5" font-family="Aptos,Aptos_MSFontService,sans-serif" font-weight="400" font-size="55" transform="matrix(1 0 0 1 1054.2 2146)">lower quality images.</text><path d="M2683.5 1025C2683.5 963.421 2733.42 913.5 2795 913.5L3241 913.5C3302.58 913.5 3352.5 963.421 3352.5 1025L3352.5 2125C3352.5 2186.58 3302.58 2236.5 3241 2236.5L2795 2236.5C2733.42 2236.5 2683.5 2186.58 2683.5 2125Z" stroke="#2E2D68" stroke-width="4.58333" stroke-miterlimit="8" fill="#75C4FF" fill-rule="evenodd"/><text fill="#FFFFFF" font-family="Aptos,Aptos_MSFontService,sans-serif" font-weight="700" font-size="55" transform="matrix(1 0 0 1 2913.05 1164)">Current:</text><text fill="#FFFFFF" font-family="Aptos,Aptos_MSFontService,sans-serif" font-weight="400" font-size="55" transform="matrix(1 0 0 1 2848.36 1230)">Gold standard </text><text fill="#FFFFFF" font-family="Aptos,Aptos_MSFontService,sans-serif" font-weight="400" font-size="55" transform="matrix(1 0 0 1 2769.92 1296)">Often avoided due to </text><text fill="#FFFFFF" font-family="Aptos,Aptos_MSFontService,sans-serif" font-weight="400" font-size="55" transform="matrix(1 0 0 1 2815.63 1362)">bleeding risk and </text><text fill="#FFFFFF" font-family="Aptos,Aptos_MSFontService,sans-serif" font-weight="400" font-size="55" transform="matrix(1 0 0 1 2832.2 1428)">tumour</text><text fill="#FFFFFF" font-family="Aptos,Aptos_MSFontService,sans-serif" font-weight="400" font-size="55" transform="matrix(1 0 0 1 3018.97 1428)">fragility.</text><text fill="#221DF2" font-family="Aptos,Aptos_MSFontService,sans-serif" font-weight="700" font-size="55" transform="matrix(1 0 0 1 2984.07 1560)">AI:</text><text fill="#221DF2" font-family="Aptos,Aptos_MSFontService,sans-serif" font-weight="400" font-size="55" transform="matrix(1 0 0 1 2761.55 1626)">Flags high malignancy </text><text fill="#221DF2" font-family="Aptos,Aptos_MSFontService,sans-serif" font-weight="400" font-size="55" transform="matrix(1 0 0 1 2831.17 1692)">likelihood when </text><text fill="#221DF2" font-family="Aptos,Aptos_MSFontService,sans-serif" font-weight="400" font-size="55" transform="matrix(1 0 0 1 2819.71 1758)">biopsy is unsafe.</text><text fill="#221DF2" font-family="Aptos,Aptos_MSFontService,sans-serif" font-weight="400" font-size="55" transform="matrix(1 0 0 1 2827.48 1890)">Supports earlier </text><text fill="#221DF2" font-family="Aptos,Aptos_MSFontService,sans-serif" font-weight="400" font-size="55" transform="matrix(1 0 0 1 2825.26 1956)">surgical referral.</text><path d="M3453.5 1030.17C3453.5 968.496 3503.5 918.5 3565.17 918.5L4011.83 918.5C4073.5 918.5 4123.5 968.496 4123.5 1030.17L4123.5 1677.83C4123.5 1739.5 4073.5 1789.5 4011.83 1789.5L3565.17 1789.5C3503.5 1789.5 3453.5 1739.5 3453.5 1677.83Z" stroke="#2E2D68" stroke-width="4.58333" stroke-miterlimit="8" fill="#75C4FF" fill-rule="evenodd"/><text fill="#FFFFFF" font-family="Aptos,Aptos_MSFontService,sans-serif" font-weight="400" font-size="55" transform="matrix(1 0 0 1 3543.06 1140)">Most PCS diagnosed </text><text fill="#FFFFFF" font-family="Aptos,Aptos_MSFontService,sans-serif" font-weight="400" font-size="55" transform="matrix(1 0 0 1 3612.27 1206)">at advanced or </text><text fill="#FFFFFF" font-family="Aptos,Aptos_MSFontService,sans-serif" font-weight="400" font-size="55" transform="matrix(1 0 0 1 3582.91 1272)">metastatic stage.</text><text fill="#0624D5" font-family="Aptos,Aptos_MSFontService,sans-serif" font-weight="700" font-size="55" transform="matrix(1 0 0 1 3754.3 1404)">AI:</text><text fill="#221DF2" font-family="Aptos,Aptos_MSFontService,sans-serif" font-weight="400" font-size="55" transform="matrix(1 0 0 1 3539.64 1470)">AI triage aims to shift </text><text fill="#221DF2" font-family="Aptos,Aptos_MSFontService,sans-serif" font-weight="400" font-size="55" transform="matrix(1 0 0 1 3557.4 1536)">detection to earlier, </text><text fill="#221DF2" font-family="Aptos,Aptos_MSFontService,sans-serif" font-weight="400" font-size="55" transform="matrix(1 0 0 1 3591.25 1602)">operable stages.</text><text fill="#0072C7" font-family="Aptos,Aptos_MSFontService,sans-serif" font-weight="400" font-size="110" transform="matrix(1 0 0 1 1046.9 202)">Diagnostic Pathway: Current vs AI Augmented</text><path d="M0.0144547-1.14574 200.397 1.38229 200.368 3.67377-0.0144547 1.14574ZM195.973-11.2787 223.297 2.81713 195.626 16.2191Z" fill="#0070C0" transform="matrix(1 0 0 -1 812 661.817)"/><path d="M1561.01 657.854 1895.73 660.49 1895.71 662.781 1560.99 660.146ZM1891.25 647.85 1918.64 661.816 1891.03 675.349Z" fill="#0070C0"/><path d="M2437.01 660.854 2716.81 662.513 2716.8 664.804 2436.99 663.146ZM2712.3 649.882 2739.72 663.794 2712.14 677.381Z" fill="#0070C0"/><path d="M3259 661.854 3491.45 662.065 3491.45 664.357 3259 664.146ZM3486.88 649.457 3514.36 663.232 3486.85 676.957Z" fill="#0070C0"/></g></svg>